<?xml version="1.0" encoding="UTF-8" standalone="no"?><!DOCTYPE svg PUBLIC "-//W3C//DTD SVG 1.1//EN" "http://www.w3.org/Graphics/SVG/1.1/DTD/svg11.dtd"><svg width="100%" height="100%" viewBox="0 0 1667 375" version="1.1" xmlns="http://www.w3.org/2000/svg" xmlns:xlink="http://www.w3.org/1999/xlink" xml:space="preserve" xmlns:serif="http://www.serif.com/" style="fill-rule:evenodd;clip-rule:evenodd;stroke-linejoin:round;stroke-miterlimit:2;"><g><g><g><g><g><path d="M268.742,106.163l-0,77.489c-0,8.037 2.072,14.204 6.167,18.602c4.145,4.347 10.109,6.52 17.893,6.52c8.745,0 16.529,-2.375 23.353,-7.076l14.912,38.921c-5.56,3.994 -12.435,7.026 -20.573,9.048c-8.138,1.972 -16.58,2.983 -25.375,2.983c-23.555,-0 -41.701,-5.763 -54.338,-17.338c-12.637,-11.576 -18.956,-28.559 -18.956,-50.952l0,-78.197l56.917,0Zm-0,-42.459l48.475,-0l-0,42.459l-48.475,0l-0,-42.459Zm-0,-0l-56.917,-0l0,-46.352l56.917,-0l-0,46.352Z" style="fill:#1f4afc;"/></g></g><g><path d="M409.256,126.765c5.076,-6.734 11.756,-11.914 20.305,-15.282c8.283,-3.367 18.168,-5.18 29.122,-5.18l0,37.297c-4.542,-0.259 -7.748,-0.518 -9.351,-0.518c-12.023,0 -21.374,3.109 -28.053,9.584c-6.679,6.734 -10.153,16.317 -10.153,29.268l0,65.788l-41.679,-0l0,-139.347l39.809,0l0,18.39Z" style="fill:#1f4afc;fill-rule:nonzero;"/></g><g><path d="M629.408,108.375l-0,139.347l-39.542,-0l0,-16.577c-5.611,5.957 -12.023,10.619 -19.771,13.728c-7.748,3.367 -16.03,4.921 -24.847,4.921c-18.969,-0 -33.931,-5.18 -44.885,-15.8c-10.955,-10.619 -16.565,-26.16 -16.565,-46.88l-0,-78.739l41.679,0l-0,72.782c-0,22.533 9.618,33.671 29.122,33.671c9.885,-0 17.901,-3.108 24.046,-9.584c6.145,-6.216 9.084,-15.54 9.084,-27.973l-0,-68.896l41.679,0Z" style="fill:#1f4afc;fill-rule:nonzero;"/></g><g><path d="M755.514,106.303c17.901,0 32.328,5.18 43.283,15.541c10.954,10.36 16.297,25.642 16.297,46.103l0,79.775l-41.679,-0l-0,-73.559c-0,-11.137 -2.405,-19.425 -7.481,-24.864c-5.076,-5.44 -12.29,-8.03 -21.641,-8.03c-10.42,0 -18.969,3.108 -25.114,9.325c-6.146,6.475 -9.352,15.799 -9.352,28.232l0,68.896l-41.679,-0l0,-139.347l39.809,0l0,16.318c5.611,-5.957 12.29,-10.36 20.573,-13.728c8.282,-3.108 17.099,-4.662 26.984,-4.662Z" style="fill:#1f4afc;fill-rule:nonzero;"/></g><g><path d="M1000.25,108.375l0,139.347l-39.809,-0l0,-16.059c-10.42,12.174 -25.381,18.131 -44.885,18.131c-13.626,-0 -25.649,-2.849 -36.603,-8.807c-10.954,-5.957 -19.771,-14.245 -25.916,-25.123c-6.145,-10.879 -9.351,-23.57 -9.351,-37.815c-0,-14.246 3.206,-26.937 9.351,-37.816c6.145,-10.878 14.962,-19.166 25.916,-25.123c10.954,-5.958 22.977,-8.807 36.603,-8.807c18.435,0 32.595,5.698 43.015,16.836l-0,-14.764l41.679,0Zm-77.48,108.266c10.419,-0 19.236,-3.367 26.183,-10.62c6.946,-6.993 10.419,-16.317 10.419,-27.972c0,-11.656 -3.473,-21.239 -10.419,-28.232c-6.947,-6.994 -15.764,-10.361 -26.183,-10.361c-10.687,0 -19.504,3.367 -26.451,10.361c-6.946,6.993 -10.42,16.576 -10.42,28.232c0,11.655 3.474,20.979 10.42,27.972c6.947,7.253 15.764,10.62 26.451,10.62Z" style="fill:#1f4afc;fill-rule:nonzero;"/></g><g><path d="M1123.68,106.303c13.358,0 25.649,2.849 36.603,8.807c10.954,5.957 19.503,14.504 25.648,25.123c6.145,10.879 9.352,23.57 9.352,37.816c-0,14.245 -3.207,26.936 -9.352,37.556c-6.145,10.878 -14.694,19.425 -25.648,25.123c-10.954,6.217 -23.245,9.066 -36.603,9.066c-19.771,-0 -34.733,-5.957 -45.153,-18.131l0,16.059l-39.809,-0l0,-192.184l41.679,-0l0,67.601c10.42,-11.138 24.848,-16.836 43.283,-16.836Zm-7.214,110.338c10.687,-0 19.504,-3.367 26.45,-10.62c6.68,-6.993 10.153,-16.317 10.153,-27.972c-0,-11.656 -3.473,-21.239 -10.153,-28.232c-6.946,-6.994 -15.763,-10.361 -26.45,-10.361c-10.687,0 -19.504,3.367 -26.183,10.361c-6.947,6.993 -10.42,16.576 -10.42,28.232c0,11.655 3.473,20.979 10.42,27.972c6.679,7.253 15.496,10.62 26.183,10.62Z" style="fill:#1f4afc;fill-rule:nonzero;"/></g><g><path d="M1274.63,249.794c-16.297,-0 -28.854,-4.144 -37.938,-12.692c-9.084,-8.288 -13.626,-20.202 -13.626,-35.484l-0,-146.08l41.679,-0l-0,143.749c-0,5.957 1.603,10.361 4.809,13.469c2.939,3.367 7.481,4.921 13.092,4.921c2.137,-0 4.274,-0.259 6.679,-0.777c2.137,-0.518 3.74,-1.036 5.076,-1.813l1.87,31.34c-6.946,2.331 -14.16,3.367 -21.641,3.367Z" style="fill:#1f4afc;fill-rule:nonzero;"/></g><g><path d="M1386.58,217.418c7.481,-0 14.161,-1.036 20.039,-3.367c5.61,-2.072 10.954,-5.44 16.03,-10.102l22.176,23.311c-13.626,15.023 -33.397,22.534 -59.313,22.534c-16.298,-0 -30.458,-3.108 -43.015,-9.325c-12.558,-5.957 -22.176,-14.504 -28.855,-25.382c-6.68,-10.879 -10.153,-23.311 -10.153,-37.038c0,-13.728 3.473,-25.901 10.153,-37.039c6.412,-10.878 15.763,-19.425 27.519,-25.641c11.488,-5.958 24.58,-9.066 39.274,-9.066c13.626,0 26.184,2.849 37.405,8.289c11.221,5.698 20.305,13.986 26.985,24.346c6.679,10.62 9.885,23.311 9.885,37.815l-106.335,19.944c2.938,6.993 7.748,12.173 14.427,15.541c6.412,3.367 14.427,5.18 23.778,5.18Zm-6.145,-80.552c-10.419,0 -18.969,3.367 -25.648,9.843c-6.68,6.475 -10.153,15.54 -10.42,27.195l70,-13.209c-1.871,-7.252 -5.878,-12.95 -12.023,-17.354c-6.145,-4.403 -13.359,-6.475 -21.909,-6.475Z" style="fill:#1f4afc;fill-rule:nonzero;"/></g></g><g><g><g transform="matrix(1,0,0,0.969434,5.68434e-14,10.4786)"><text x="456.842px" y="342.818px" style="font-family:'MontserratAlternates-SemiBold', 'Montserrat Alternates';font-weight:600;font-size:78.646px;fill:#1f4afc;">i</text></g><g><path d="M511.42,301.648c5.296,-0 9.543,1.499 12.741,4.498c3.198,2.999 4.798,7.446 4.798,13.342l-0,23.33l-9.831,0l-0,-22.11c-0,-3.558 -0.865,-6.239 -2.596,-8.043c-1.73,-1.805 -4.194,-2.707 -7.392,-2.707c-3.618,-0 -6.475,1.055 -8.573,3.164c-2.097,2.109 -3.146,5.146 -3.146,9.111l0,20.585l-9.83,0l-0,-40.713l9.359,-0l-0,5.261c1.625,-1.881 3.67,-3.304 6.134,-4.27c2.464,-0.966 5.243,-1.448 8.336,-1.448Z" style="fill:#1f4afc;fill-rule:nonzero;"/><path d="M554.44,343.352c-3.408,-0 -6.737,-0.432 -9.988,-1.296c-3.251,-0.864 -5.846,-1.957 -7.786,-3.279l3.775,-7.243c1.887,1.22 4.155,2.199 6.803,2.936c2.647,0.737 5.256,1.105 7.825,1.105c5.872,0 8.808,-1.499 8.808,-4.498c0,-1.423 -0.747,-2.414 -2.241,-2.973c-1.494,-0.56 -3.893,-1.093 -7.196,-1.602c-3.461,-0.508 -6.279,-1.092 -8.455,-1.753c-2.175,-0.661 -4.063,-1.817 -5.662,-3.469c-1.599,-1.652 -2.399,-3.952 -2.399,-6.9c0,-3.863 1.665,-6.951 4.994,-9.263c3.33,-2.313 7.825,-3.469 13.488,-3.469c2.884,-0 5.767,0.317 8.651,0.953c2.884,0.635 5.243,1.486 7.078,2.554l-3.775,7.243c-3.565,-2.033 -7.576,-3.05 -12.033,-3.05c-2.883,-0 -5.072,0.419 -6.567,1.258c-1.494,0.839 -2.241,1.944 -2.241,3.317c-0,1.524 0.8,2.604 2.399,3.24c1.599,0.635 4.076,1.232 7.432,1.791c3.355,0.509 6.108,1.093 8.258,1.754c2.149,0.661 3.997,1.779 5.544,3.355c1.547,1.575 2.32,3.812 2.32,6.709c0,3.812 -1.704,6.862 -5.112,9.149c-3.408,2.287 -8.048,3.431 -13.92,3.431Z" style="fill:#1f4afc;fill-rule:nonzero;"/><path d="M605.245,301.648c4.09,-0 7.747,0.864 10.971,2.592c3.225,1.728 5.755,4.168 7.59,7.319c1.835,3.151 2.752,6.786 2.752,10.903c0,4.117 -0.917,7.764 -2.752,10.94c-1.835,3.177 -4.365,5.63 -7.59,7.358c-3.224,1.728 -6.881,2.592 -10.971,2.592c-5.662,-0 -10.145,-1.83 -13.448,-5.489l-0,19.746l-9.831,0l-0,-55.504l9.359,-0l-0,5.337c1.625,-1.932 3.631,-3.38 6.016,-4.346c2.386,-0.966 5.021,-1.448 7.904,-1.448Zm-1.101,33.546c3.618,0 6.593,-1.169 8.927,-3.507c2.333,-2.338 3.499,-5.413 3.499,-9.225c0,-3.812 -1.166,-6.888 -3.499,-9.226c-2.334,-2.338 -5.309,-3.507 -8.927,-3.507c-2.359,0 -4.483,0.521 -6.37,1.563c-1.888,1.042 -3.382,2.529 -4.483,4.46c-1.101,1.932 -1.652,4.168 -1.652,6.71c0,2.541 0.551,4.777 1.652,6.709c1.101,1.931 2.595,3.418 4.483,4.46c1.887,1.042 4.011,1.563 6.37,1.563Z" style="fill:#1f4afc;fill-rule:nonzero;"/><path d="M635.917,302.105l9.831,-0l-0,40.713l-9.831,0l0,-40.713Zm4.955,-6.709c-1.783,-0 -3.277,-0.547 -4.483,-1.64c-1.206,-1.092 -1.809,-2.452 -1.809,-4.079c0,-1.626 0.603,-2.986 1.809,-4.078c1.206,-1.093 2.7,-1.64 4.483,-1.64c1.783,0 3.277,0.521 4.483,1.563c1.206,1.042 1.809,2.351 1.809,3.927c-0,1.677 -0.59,3.088 -1.77,4.231c-1.18,1.144 -2.687,1.716 -4.522,1.716Z" style="fill:#1f4afc;fill-rule:nonzero;"/><path d="M668.005,308.052c2.831,-4.27 7.812,-6.404 14.943,-6.404l-0,9.072c-0.839,-0.152 -1.6,-0.228 -2.281,-0.228c-3.828,-0 -6.816,1.08 -8.966,3.24c-2.149,2.16 -3.224,5.273 -3.224,9.34l-0,19.746l-9.831,0l-0,-40.713l9.359,-0l-0,5.947Z" style="fill:#1f4afc;fill-rule:nonzero;"/><path d="M731.944,302.105l0,40.713l-9.359,0l0,-5.26c-1.625,1.931 -3.631,3.38 -6.016,4.345c-2.386,0.966 -5.02,1.449 -7.904,1.449c-4.09,-0 -7.747,-0.864 -10.971,-2.592c-3.225,-1.728 -5.741,-4.168 -7.55,-7.319c-1.809,-3.152 -2.714,-6.811 -2.714,-10.979c0,-4.168 0.905,-7.815 2.714,-10.941c1.809,-3.126 4.325,-5.553 7.55,-7.281c3.224,-1.728 6.881,-2.592 10.971,-2.592c2.726,-0 5.23,0.457 7.511,1.372c2.28,0.915 4.26,2.262 5.937,4.041l0,-4.956l9.831,-0Zm-22.178,33.089c3.618,0 6.606,-1.169 8.966,-3.507c2.359,-2.338 3.539,-5.413 3.539,-9.225c-0,-3.812 -1.18,-6.888 -3.539,-9.226c-2.36,-2.338 -5.348,-3.507 -8.966,-3.507c-3.618,0 -6.593,1.169 -8.926,3.507c-2.334,2.338 -3.5,5.414 -3.5,9.226c-0,3.812 1.166,6.887 3.5,9.225c2.333,2.338 5.308,3.507 8.926,3.507Z" style="fill:#1f4afc;fill-rule:nonzero;"/><path d="M797.849,301.648c5.296,-0 9.49,1.486 12.584,4.46c3.093,2.973 4.64,7.433 4.64,13.38l-0,23.33l-9.831,0l0,-22.11c0,-3.558 -0.812,-6.239 -2.438,-8.043c-1.625,-1.805 -3.958,-2.707 -6.999,-2.707c-3.303,-0 -5.951,1.055 -7.944,3.164c-1.992,2.109 -2.988,5.121 -2.988,9.035l-0,20.661l-9.831,0l0,-22.11c0,-3.558 -0.813,-6.239 -2.438,-8.043c-1.625,-1.805 -3.958,-2.707 -6.999,-2.707c-3.356,-0 -6.017,1.042 -7.983,3.126c-1.966,2.084 -2.949,5.108 -2.949,9.073l-0,20.661l-9.831,0l0,-40.713l9.359,-0l-0,5.184c1.573,-1.829 3.539,-3.227 5.898,-4.193c2.36,-0.966 4.981,-1.448 7.865,-1.448c3.146,-0 5.938,0.571 8.376,1.715c2.438,1.144 4.365,2.834 5.78,5.07c1.73,-2.135 3.959,-3.799 6.685,-4.994c2.727,-1.194 5.741,-1.791 9.044,-1.791Z" style="fill:#1f4afc;fill-rule:nonzero;"/><path d="M846.925,343.352c-4.247,-0 -8.075,-0.89 -11.483,-2.668c-3.408,-1.779 -6.069,-4.257 -7.982,-7.434c-1.914,-3.177 -2.871,-6.773 -2.871,-10.788c0,-4.016 0.957,-7.599 2.871,-10.751c1.913,-3.151 4.574,-5.616 7.982,-7.395c3.408,-1.779 7.236,-2.668 11.483,-2.668c4.299,-0 8.153,0.889 11.561,2.668c3.408,1.779 6.068,4.244 7.982,7.395c1.914,3.152 2.871,6.735 2.871,10.751c-0,4.015 -0.957,7.611 -2.871,10.788c-1.914,3.177 -4.574,5.655 -7.982,7.434c-3.408,1.778 -7.262,2.668 -11.561,2.668Zm-0,-8.158c3.617,0 6.606,-1.169 8.965,-3.507c2.36,-2.338 3.539,-5.413 3.539,-9.225c0,-3.812 -1.179,-6.888 -3.539,-9.226c-2.359,-2.338 -5.348,-3.507 -8.965,-3.507c-3.618,0 -6.594,1.169 -8.927,3.507c-2.333,2.338 -3.499,5.414 -3.499,9.226c-0,3.812 1.166,6.887 3.499,9.225c2.333,2.338 5.309,3.507 8.927,3.507Z" style="fill:#1f4afc;fill-rule:nonzero;"/><path d="M891.753,343.352c-3.408,-0 -6.737,-0.432 -9.988,-1.296c-3.251,-0.864 -5.846,-1.957 -7.786,-3.279l3.775,-7.243c1.887,1.22 4.155,2.199 6.803,2.936c2.648,0.737 5.256,1.105 7.825,1.105c5.872,0 8.808,-1.499 8.808,-4.498c0,-1.423 -0.747,-2.414 -2.241,-2.973c-1.494,-0.56 -3.893,-1.093 -7.196,-1.602c-3.461,-0.508 -6.279,-1.092 -8.455,-1.753c-2.175,-0.661 -4.063,-1.817 -5.662,-3.469c-1.599,-1.652 -2.399,-3.952 -2.399,-6.9c0,-3.863 1.665,-6.951 4.994,-9.263c3.33,-2.313 7.826,-3.469 13.488,-3.469c2.884,-0 5.767,0.317 8.651,0.953c2.884,0.635 5.243,1.486 7.078,2.554l-3.775,7.243c-3.565,-2.033 -7.576,-3.05 -12.033,-3.05c-2.883,-0 -5.072,0.419 -6.567,1.258c-1.494,0.839 -2.241,1.944 -2.241,3.317c0,1.524 0.8,2.604 2.399,3.24c1.599,0.635 4.076,1.232 7.432,1.791c3.355,0.509 6.108,1.093 8.258,1.754c2.149,0.661 3.997,1.779 5.544,3.355c1.547,1.575 2.32,3.812 2.32,6.709c0,3.812 -1.704,6.862 -5.112,9.149c-3.408,2.287 -8.048,3.431 -13.92,3.431Z" style="fill:#1f4afc;fill-rule:nonzero;"/><path d="M956.793,293.413c-4.142,0 -6.213,2.186 -6.213,6.557l0,2.44l11.561,-0l0,7.624l-11.325,0l0,32.784l-9.831,0l0,-43c0,-4.321 1.311,-7.752 3.933,-10.293c2.621,-2.541 6.344,-3.812 11.167,-3.812c3.723,-0 6.659,0.737 8.809,2.211l-2.753,7.167c-1.573,-1.119 -3.355,-1.678 -5.348,-1.678Z" style="fill:#1f4afc;fill-rule:nonzero;"/><path d="M1009.41,302.105l0,40.713l-9.358,0l-0,-5.184c-1.573,1.83 -3.54,3.24 -5.899,4.231c-2.359,0.991 -4.902,1.487 -7.629,1.487c-5.61,-0 -10.027,-1.512 -13.251,-4.536c-3.225,-3.025 -4.837,-7.51 -4.837,-13.457l-0,-23.254l9.831,-0l-0,21.958c-0,3.659 0.852,6.391 2.556,8.196c1.704,1.804 4.128,2.706 7.274,2.706c3.513,0 6.305,-1.054 8.376,-3.164c2.071,-2.109 3.107,-5.146 3.107,-9.111l-0,-20.585l9.83,-0Z" style="fill:#1f4afc;fill-rule:nonzero;"/><path d="M1045.9,340.607c-1.153,0.915 -2.556,1.601 -4.207,2.059c-1.652,0.457 -3.395,0.686 -5.23,0.686c-4.614,-0 -8.18,-1.169 -10.696,-3.507c-2.517,-2.338 -3.775,-5.744 -3.775,-10.217l-0,-36.52l9.831,0l-0,9.302l11.246,-0l-0,7.624l-11.246,0l-0,19.366c-0,1.982 0.511,3.494 1.533,4.536c1.023,1.042 2.451,1.563 4.286,1.563c2.202,0 4.038,-0.559 5.506,-1.677l2.752,6.785Z" style="fill:#1f4afc;fill-rule:nonzero;"/><path d="M1094.66,302.105l-0,40.713l-9.359,0l-0,-5.184c-1.573,1.83 -3.539,3.24 -5.899,4.231c-2.359,0.991 -4.902,1.487 -7.628,1.487c-5.61,-0 -10.028,-1.512 -13.252,-4.536c-3.225,-3.025 -4.837,-7.51 -4.837,-13.457l0,-23.254l9.831,-0l-0,21.958c-0,3.659 0.852,6.391 2.556,8.196c1.704,1.804 4.129,2.706 7.275,2.706c3.513,0 6.304,-1.054 8.376,-3.164c2.071,-2.109 3.106,-5.146 3.106,-9.111l0,-20.585l9.831,-0Z" style="fill:#1f4afc;fill-rule:nonzero;"/><path d="M1116.92,308.052c2.831,-4.27 7.812,-6.404 14.942,-6.404l0,9.072c-0.839,-0.152 -1.599,-0.228 -2.28,-0.228c-3.828,-0 -6.816,1.08 -8.966,3.24c-2.15,2.16 -3.225,5.273 -3.225,9.34l0,19.746l-9.83,0l-0,-40.713l9.359,-0l-0,5.947Z" style="fill:#1f4afc;fill-rule:nonzero;"/><path d="M1158.68,343.352c-4.247,-0 -8.075,-0.89 -11.483,-2.668c-3.408,-1.779 -6.068,-4.257 -7.982,-7.434c-1.914,-3.177 -2.871,-6.773 -2.871,-10.788c0,-4.016 0.957,-7.599 2.871,-10.751c1.914,-3.151 4.574,-5.616 7.982,-7.395c3.408,-1.779 7.236,-2.668 11.483,-2.668c4.299,-0 8.153,0.889 11.561,2.668c3.408,1.779 6.069,4.244 7.982,7.395c1.914,3.152 2.871,6.735 2.871,10.751c-0,4.015 -0.957,7.611 -2.871,10.788c-1.913,3.177 -4.574,5.655 -7.982,7.434c-3.408,1.778 -7.262,2.668 -11.561,2.668Zm-0,-8.158c3.617,0 6.606,-1.169 8.965,-3.507c2.36,-2.338 3.539,-5.413 3.539,-9.225c0,-3.812 -1.179,-6.888 -3.539,-9.226c-2.359,-2.338 -5.348,-3.507 -8.965,-3.507c-3.618,0 -6.593,1.169 -8.927,3.507c-2.333,2.338 -3.499,5.414 -3.499,9.226c-0,3.812 1.166,6.887 3.499,9.225c2.334,2.338 5.309,3.507 8.927,3.507Z" style="fill:#1f4afc;fill-rule:nonzero;"/></g></g></g></g></g></svg>